<svg xmlns="http://www.w3.org/2000/svg" width="1800" height="1150" viewBox="0 0 1800 1150">
<circle cx="1531.8" cy="585.2" r="10.78" fill="none" stroke="#4FB4EE" stroke-width="1.66" opacity="0.625"/><circle cx="1528.2" cy="581.5" r="2.59" fill="#4FB4EE" opacity="0.625"/>
<circle cx="1533.5" cy="565.7" r="13.55" fill="none" stroke="#4FB4EE" stroke-width="1.88" opacity="0.566"/><circle cx="1528.9" cy="561.1" r="3.25" fill="#4FB4EE" opacity="0.566"/>
<circle cx="103.7" cy="815.9" r="12.73" fill="none" stroke="#4FB4EE" stroke-width="1.82" opacity="0.498"/><circle cx="99.3" cy="811.6" r="3.06" fill="#4FB4EE" opacity="0.498"/>
<circle cx="614.7" cy="1100.2" r="8.52" fill="none" stroke="#4FB4EE" stroke-width="1.48" opacity="0.428"/><circle cx="611.8" cy="1097.3" r="2.05" fill="#4FB4EE" opacity="0.428"/>
<circle cx="473.2" cy="820.3" r="12.52" fill="none" stroke="#4FB4EE" stroke-width="1.80" opacity="0.486"/><circle cx="469.0" cy="816.1" r="3.00" fill="#4FB4EE" opacity="0.486"/>
<circle cx="478.7" cy="621.6" r="6.64" fill="none" stroke="#4FB4EE" stroke-width="1.33" opacity="0.528"/><circle cx="476.4" cy="619.3" r="1.59" fill="#4FB4EE" opacity="0.528"/>
<circle cx="271.3" cy="550.1" r="7.50" fill="none" stroke="#4FB4EE" stroke-width="1.40" opacity="0.323"/><circle cx="268.8" cy="547.5" r="1.80" fill="#4FB4EE" opacity="0.323"/>
<circle cx="1531.6" cy="206.4" r="4.81" fill="none" stroke="#4FB4EE" stroke-width="1.18" opacity="0.698"/><circle cx="1530.0" cy="204.8" r="1.15" fill="#4FB4EE" opacity="0.698"/>
<circle cx="863.2" cy="573.0" r="11.99" fill="none" stroke="#4FB4EE" stroke-width="1.76" opacity="0.430"/><circle cx="859.1" cy="568.9" r="2.88" fill="#4FB4EE" opacity="0.430"/>
<circle cx="1293.5" cy="526.3" r="9.99" fill="none" stroke="#4FB4EE" stroke-width="1.60" opacity="0.407"/><circle cx="1290.1" cy="522.9" r="2.40" fill="#4FB4EE" opacity="0.407"/>
<circle cx="344.9" cy="824.4" r="9.87" fill="none" stroke="#4FB4EE" stroke-width="1.59" opacity="0.459"/><circle cx="341.5" cy="821.0" r="2.37" fill="#4FB4EE" opacity="0.459"/>
<circle cx="1579.1" cy="820.2" r="6.80" fill="none" stroke="#4FB4EE" stroke-width="1.34" opacity="0.323"/><circle cx="1576.8" cy="817.9" r="1.63" fill="#4FB4EE" opacity="0.323"/>
<circle cx="421.7" cy="1.2" r="9.25" fill="none" stroke="#4FB4EE" stroke-width="1.54" opacity="0.410"/><circle cx="418.6" cy="-1.9" r="2.22" fill="#4FB4EE" opacity="0.410"/>
<circle cx="421.7" cy="1151.2" r="9.25" fill="none" stroke="#4FB4EE" stroke-width="1.54" opacity="0.410"/><circle cx="418.6" cy="1148.1" r="2.22" fill="#4FB4EE" opacity="0.410"/>
</svg>
