<svg xmlns="http://www.w3.org/2000/svg" width="1200" height="820" viewBox="0 0 1200 820">
<circle cx="812.6" cy="158.0" r="2.06" fill="none" stroke="#5AD8F2" stroke-width="0.96" opacity="0.299"/><circle cx="811.9" cy="157.3" r="0.49" fill="#5AD8F2" opacity="0.299"/>
<circle cx="105.3" cy="623.9" r="1.54" fill="none" stroke="#5AD8F2" stroke-width="0.92" opacity="0.471"/><circle cx="104.8" cy="623.4" r="0.37" fill="#5AD8F2" opacity="0.471"/>
<circle cx="308.1" cy="560.4" r="2.61" fill="none" stroke="#5AD8F2" stroke-width="1.01" opacity="0.362"/><circle cx="307.2" cy="559.5" r="0.63" fill="#5AD8F2" opacity="0.362"/>
<circle cx="283.2" cy="162.8" r="2.27" fill="none" stroke="#5AD8F2" stroke-width="0.98" opacity="0.557"/><circle cx="282.4" cy="162.0" r="0.54" fill="#5AD8F2" opacity="0.557"/>
<circle cx="352.3" cy="396.6" r="2.39" fill="none" stroke="#5AD8F2" stroke-width="0.99" opacity="0.526"/><circle cx="351.5" cy="395.8" r="0.57" fill="#5AD8F2" opacity="0.526"/>
<circle cx="667.4" cy="499.1" r="2.13" fill="none" stroke="#5AD8F2" stroke-width="0.97" opacity="0.408"/><circle cx="666.7" cy="498.3" r="0.51" fill="#5AD8F2" opacity="0.408"/>
<circle cx="76.6" cy="52.4" r="2.78" fill="none" stroke="#5AD8F2" stroke-width="1.02" opacity="0.369"/><circle cx="75.6" cy="51.5" r="0.67" fill="#5AD8F2" opacity="0.369"/>
<circle cx="509.3" cy="520.7" r="2.21" fill="none" stroke="#5AD8F2" stroke-width="0.98" opacity="0.246"/><circle cx="508.6" cy="519.9" r="0.53" fill="#5AD8F2" opacity="0.246"/>
<circle cx="275.8" cy="658.5" r="1.17" fill="none" stroke="#5AD8F2" stroke-width="0.89" opacity="0.656"/><circle cx="275.4" cy="658.1" r="0.28" fill="#5AD8F2" opacity="0.656"/>
<circle cx="384.3" cy="89.6" r="2.45" fill="none" stroke="#5AD8F2" stroke-width="1.00" opacity="0.314"/><circle cx="383.5" cy="88.8" r="0.59" fill="#5AD8F2" opacity="0.314"/>
<circle cx="469.0" cy="596.1" r="1.13" fill="none" stroke="#5AD8F2" stroke-width="0.89" opacity="0.569"/><circle cx="468.6" cy="595.7" r="0.27" fill="#5AD8F2" opacity="0.569"/>
<circle cx="297.4" cy="665.7" r="2.88" fill="none" stroke="#5AD8F2" stroke-width="1.03" opacity="0.386"/><circle cx="296.5" cy="664.7" r="0.69" fill="#5AD8F2" opacity="0.386"/>
<circle cx="224.0" cy="185.6" r="2.63" fill="none" stroke="#5AD8F2" stroke-width="1.01" opacity="0.477"/><circle cx="223.1" cy="184.7" r="0.63" fill="#5AD8F2" opacity="0.477"/>
<circle cx="842.2" cy="102.8" r="1.95" fill="none" stroke="#5AD8F2" stroke-width="0.96" opacity="0.640"/><circle cx="841.5" cy="102.1" r="0.47" fill="#5AD8F2" opacity="0.640"/>
<circle cx="704.8" cy="686.2" r="1.12" fill="none" stroke="#5AD8F2" stroke-width="0.89" opacity="0.574"/><circle cx="704.4" cy="685.9" r="0.27" fill="#5AD8F2" opacity="0.574"/>
<circle cx="1140.1" cy="221.4" r="1.11" fill="none" stroke="#5AD8F2" stroke-width="0.89" opacity="0.531"/><circle cx="1139.7" cy="221.0" r="0.27" fill="#5AD8F2" opacity="0.531"/>
<circle cx="171.8" cy="284.1" r="2.53" fill="none" stroke="#5AD8F2" stroke-width="1.00" opacity="0.522"/><circle cx="171.0" cy="283.2" r="0.61" fill="#5AD8F2" opacity="0.522"/>
<circle cx="664.8" cy="546.9" r="2.65" fill="none" stroke="#5AD8F2" stroke-width="1.01" opacity="0.559"/><circle cx="663.9" cy="545.9" r="0.64" fill="#5AD8F2" opacity="0.559"/>
<circle cx="522.7" cy="48.6" r="2.33" fill="none" stroke="#5AD8F2" stroke-width="0.99" opacity="0.456"/><circle cx="521.9" cy="47.8" r="0.56" fill="#5AD8F2" opacity="0.456"/>
<circle cx="755.2" cy="32.1" r="2.93" fill="none" stroke="#5AD8F2" stroke-width="1.03" opacity="0.248"/><circle cx="754.2" cy="31.1" r="0.70" fill="#5AD8F2" opacity="0.248"/>
<circle cx="662.3" cy="93.0" r="1.62" fill="none" stroke="#5AD8F2" stroke-width="0.93" opacity="0.441"/><circle cx="661.7" cy="92.4" r="0.39" fill="#5AD8F2" opacity="0.441"/>
<circle cx="667.7" cy="117.5" r="1.94" fill="none" stroke="#5AD8F2" stroke-width="0.96" opacity="0.580"/><circle cx="667.0" cy="116.9" r="0.47" fill="#5AD8F2" opacity="0.580"/>
<circle cx="28.6" cy="629.8" r="2.89" fill="none" stroke="#5AD8F2" stroke-width="1.03" opacity="0.409"/><circle cx="27.6" cy="628.8" r="0.69" fill="#5AD8F2" opacity="0.409"/>
<circle cx="1086.3" cy="254.0" r="1.55" fill="none" stroke="#5AD8F2" stroke-width="0.92" opacity="0.475"/><circle cx="1085.8" cy="253.4" r="0.37" fill="#5AD8F2" opacity="0.475"/>
<circle cx="377.5" cy="95.8" r="2.21" fill="none" stroke="#5AD8F2" stroke-width="0.98" opacity="0.582"/><circle cx="376.7" cy="95.0" r="0.53" fill="#5AD8F2" opacity="0.582"/>
<circle cx="447.8" cy="440.6" r="2.14" fill="none" stroke="#5AD8F2" stroke-width="0.97" opacity="0.505"/><circle cx="447.1" cy="439.9" r="0.51" fill="#5AD8F2" opacity="0.505"/>
</svg>
